<svg xmlns="http://www.w3.org/2000/svg" version="1.0" width="1599.000000pt" height="156.000000pt" viewBox="0 0 1599.000000 156.000000" preserveAspectRatio="xMidYMid meet">

<g transform="translate(0.000000,156.000000) scale(0.100000,-0.100000)" fill="#673ab7" stroke="none">
<path d="M250 1166 l0 -85 -47 -3 -48 -3 -3 -347 c-2 -313 -1 -347 14 -350 9 -2 52 -2 95 0 l79 4 0 174 0 174 145 0 145 0 0 -39 0 -40 -47 -4 -48 -3 46 -2 47 -2 1 -127 c1 -70 3 -128 4 -129 4 -4 54 -6 115 -5 l62 1 0 304 0 305 33 4 32 4 -32 1 c-31 2 -33 4 -33 42 l0 40 -45 0 c-43 0 -45 1 -45 29 0 20 6 31 18 34 16 4 16 5 0 6 -15 1 -18 10 -18 51 l0 50 -235 0 -235 0 0 -84z m380 -126 l0 -40 -47 -2 -48 -2 46 -3 46 -4 1 -45 2 -45 -145 2 -145 1 0 89 0 89 145 0 145 0 0 -40z" fill="#673ab7"/>
<path d="M370 992 c0 -5 14 -7 30 -4 17 2 30 6 30 8 0 2 -13 4 -30 4 -16 0 -30 -4 -30 -8z" fill="#673ab7"/>
<path d="M463 993 c15 -2 37 -2 50 0 12 2 0 4 -28 4 -27 0 -38 -2 -22 -4z" fill="#673ab7"/>
<path d="M910 815 c0 -380 2 -435 15 -435 12 0 15 -13 15 -60 l0 -60 33 1 c30 2 30 2 5 6 -27 4 -28 7 -28 59 l0 54 260 0 260 0 0 84 0 85 48 3 47 3 0 85 0 85 -48 3 -48 3 3 86 3 87 45 0 45 1 0 85 0 85 -47 3 c-46 3 -48 5 -48 33 0 23 4 29 23 30 20 1 21 1 2 7 -11 4 -20 13 -21 20 -1 6 -2 28 -2 47 l-2 35 -280 0 -280 0 0 -435z m480 225 l0 -40 -52 -2 -53 -2 53 -3 52 -4 0 -45 0 -45 -145 2 -145 1 0 89 0 89 145 0 145 0 0 -40z m0 -350 l0 -40 -52 -2 -53 -2 53 -3 52 -4 0 -45 0 -44 -145 0 -145 0 0 90 0 90 145 0 145 0 0 -40z" fill="#673ab7"/>
<path d="M1143 993 c9 -2 25 -2 35 0 9 3 1 5 -18 5 -19 0 -27 -2 -17 -5z" fill="#673ab7"/>
<path d="M1218 993 c12 -2 32 -2 45 0 12 2 2 4 -23 4 -25 0 -35 -2 -22 -4z" fill="#673ab7"/>
<path d="M1143 643 c9 -2 25 -2 35 0 9 3 1 5 -18 5 -19 0 -27 -2 -17 -5z" fill="#673ab7"/>
<path d="M1218 643 c12 -2 32 -2 45 0 12 2 2 4 -23 4 -25 0 -35 -2 -22 -4z" fill="#673ab7"/>
<path d="M1670 816 l0 -435 28 -3 c15 -2 141 -2 280 0 l252 3 0 84 0 84 48 3 47 3 3 217 2 217 33 4 32 4 -32 1 c-31 2 -33 5 -33 37 0 19 -6 37 -14 42 -8 4 -16 28 -19 53 l-4 45 -1 -47 c-2 -46 -3 -48 -32 -48 -27 0 -30 3 -30 29 0 23 5 31 23 34 l22 4 -22 2 c-21 1 -23 6 -23 51 l0 50 -280 0 -280 0 0 -434z m478 222 l3 -38 -53 -2 -53 -2 51 -3 52 -4 1 -220 2 -220 -151 2 -150 2 0 264 0 264 148 -3 147 -3 3 -37z" fill="#673ab7"/>
<path d="M1928 993 c23 -2 59 -2 80 0 20 2 1 4 -43 4 -44 0 -61 -2 -37 -4z" fill="#673ab7"/>
<path d="M2430 815 l0 -435 28 0 c178 -2 617 2 620 5 6 5 5 155 0 161 -3 2 -109 4 -236 4 l-232 1 0 90 0 89 145 0 145 0 0 29 c0 20 6 31 18 34 16 4 16 5 0 6 -15 1 -18 10 -18 51 l0 50 -112 1 c-62 1 -128 0 -145 -1 l-33 -2 0 91 0 91 235 0 235 0 1 28 c2 43 2 64 1 105 l-2 37 -325 0 -325 0 0 -435z" fill="#673ab7"/>
<path d="M3190 815 c0 -448 -1 -441 38 -436 8 1 12 -13 12 -44 0 -36 3 -45 18 -44 10 0 12 3 5 6 -8 2 -13 22 -13 44 l0 39 60 0 60 0 0 175 0 175 145 0 145 0 0 -175 c0 -185 -2 -177 45 -177 8 0 44 0 80 1 l65 1 0 129 0 130 33 4 32 4 -32 1 c-29 2 -32 5 -35 40 l-3 37 -48 0 -47 0 0 90 0 90 47 0 48 0 3 42 c3 39 5 42 35 46 l32 4 -32 1 c-29 2 -32 5 -35 40 l-3 37 -48 0 -47 0 0 88 0 87 -280 0 -280 0 0 -435z m470 225 l0 -40 -47 -2 -48 -2 48 -3 47 -4 0 -45 0 -44 -145 0 -145 0 0 90 0 90 145 0 145 0 0 -40z" fill="#673ab7"/>
<path d="M3423 993 c9 -2 23 -2 30 0 6 3 -1 5 -18 5 -16 0 -22 -2 -12 -5z" fill="#673ab7"/>
<path d="M3493 993 c15 -2 37 -2 50 0 12 2 0 4 -28 4 -27 0 -38 -2 -22 -4z" fill="#673ab7"/>
<path d="M3950 816 c0 -274 4 -436 10 -438 5 -2 46 -2 90 0 l80 4 0 174 0 174 145 0 145 0 0 -40 0 -39 -97 -4 -98 -3 98 -2 97 -2 0 -129 0 -130 28 -3 c15 -2 55 -1 90 0 l62 4 0 174 0 174 -45 0 -45 0 0 85 0 85 45 0 45 0 0 90 c0 89 0 90 -25 90 -22 0 -25 4 -25 35 0 28 -4 35 -20 35 -17 0 -20 7 -20 50 l0 50 -280 0 -280 0 0 -434z m590 294 c0 -20 -5 -30 -15 -30 -10 0 -15 10 -15 30 0 20 5 30 15 30 10 0 15 -10 15 -30z m-120 -120 l0 -91 -145 2 -145 2 0 88 0 89 145 0 145 0 0 -90z" fill="#673ab7"/>
<path d="M4166 992 c-3 -5 8 -6 25 -4 16 2 29 6 29 8 0 8 -49 4 -54 -4z" fill="#673ab7"/>
<path d="M4253 993 c15 -2 37 -2 50 0 12 2 0 4 -28 4 -27 0 -38 -2 -22 -4z" fill="#673ab7"/>
<path d="M4348 993 c12 -2 32 -2 45 0 12 2 2 4 -23 4 -25 0 -35 -2 -22 -4z" fill="#673ab7"/>
<path d="M4800 1165 l0 -85 -45 0 -45 0 0 -350 c0 -226 4 -350 10 -351 6 -1 19 -1 30 -1 11 0 47 0 80 1 l60 1 0 175 0 175 145 0 145 0 0 -174 0 -175 28 -3 c15 -2 55 -1 90 0 l62 4 0 303 0 304 38 4 37 4 -37 1 c-37 2 -38 3 -38 42 l0 40 -45 0 c-43 0 -45 1 -45 29 0 20 6 31 18 34 16 4 16 5 0 6 -15 1 -18 10 -18 51 l0 50 -235 0 -235 0 0 -85z m380 -175 l0 -90 -145 0 -145 0 0 90 0 90 145 0 145 0 0 -90z" fill="#673ab7"/>
<path d="M4933 993 c9 -2 25 -2 35 0 9 3 1 5 -18 5 -19 0 -27 -2 -17 -5z" fill="#673ab7"/>
<path d="M5033 993 c26 -2 68 -2 95 0 26 2 4 3 -48 3 -52 0 -74 -1 -47 -3z" fill="#673ab7"/>
<path d="M5460 815 c0 -464 -3 -437 45 -437 8 0 44 0 80 1 l65 1 0 175 0 175 145 0 145 0 0 -39 0 -40 -52 -4 -53 -3 51 -2 52 -2 1 -127 c1 -72 6 -130 12 -133 5 -4 20 -5 32 -4 12 1 48 3 80 3 l57 1 0 379 c0 353 1 380 18 384 16 4 16 5 0 6 -15 1 -18 10 -18 51 l0 50 -90 0 -90 0 0 -175 0 -175 -125 0 -124 0 -3 122 c-2 88 -6 122 -16 124 -7 1 -8 0 -2 -3 6 -3 10 -52 10 -124 0 -99 -3 -119 -15 -119 -13 0 -15 26 -15 175 l0 175 -95 0 -95 0 0 -435z" fill="#673ab7"/>
<path d="M6220 816 c0 -391 2 -435 16 -438 9 -2 49 -2 90 0 l74 4 0 259 0 259 56 0 55 0 -3 -50 c-2 -39 -7 -50 -20 -50 -9 0 -19 -4 -22 -9 -3 -4 6 -6 19 -3 22 4 25 1 25 -27 0 -32 3 -34 58 -33 31 2 32 0 32 -38 0 -32 -4 -39 -22 -43 l-23 -4 23 -2 c13 0 22 -7 21 -13 -1 -7 -1 -27 0 -45 l1 -32 90 0 90 0 0 90 0 89 50 0 50 0 0 85 0 85 50 0 50 0 0 -260 c0 -276 -2 -262 45 -262 8 0 42 0 75 1 l60 1 0 379 0 380 23 4 22 4 -22 2 c-21 1 -23 6 -23 51 l0 50 -140 0 -140 0 0 -85 0 -85 -45 0 -45 0 0 -90 0 -90 -100 0 -100 0 2 44 c1 44 2 45 37 49 l36 4 -37 1 c-37 2 -38 3 -38 43 l0 41 -45 -4 -45 -3 0 87 0 88 -140 0 -140 0 0 -434z" fill="#673ab7"/>
<path d="M7360 1166 l0 -85 -47 -3 -48 -3 -3 -347 c-2 -313 -1 -347 14 -350 9 -2 52 -2 95 0 l79 4 0 174 0 174 145 0 145 0 0 -174 0 -175 28 -3 c15 -2 55 -1 90 0 l62 4 0 349 0 349 -27 1 c-16 1 -36 1 -45 0 -14 -2 -18 5 -18 28 0 37 26 43 33 9 4 -23 4 -23 6 0 1 16 -6 26 -19 29 -17 4 -20 14 -20 54 l0 49 -235 0 -235 0 0 -84z m380 -176 l0 -90 -125 0 -125 0 0 45 0 44 73 4 72 3 -77 2 -78 2 0 -50 c0 -38 -4 -50 -15 -50 -12 0 -15 17 -15 90 l0 90 145 0 145 0 0 -90z" fill="#673ab7"/>
<path d="M7663 993 c15 -2 37 -2 50 0 12 2 0 4 -28 4 -27 0 -38 -2 -22 -4z" fill="#673ab7"/>
<path d="M8020 815 c0 -464 -3 -437 45 -437 8 0 42 0 75 1 l60 1 0 259 0 259 51 4 c28 1 53 1 55 -1 2 -2 4 -42 4 -88 0 -81 3 -89 34 -84 5 1 13 -4 17 -11 7 -10 9 -10 9 0 0 6 7 12 15 12 11 0 15 -11 15 -40 0 -44 -25 -58 -33 -17 -4 19 -4 18 -6 -5 -1 -22 4 -28 19 -28 17 0 20 -7 20 -45 0 -32 4 -45 14 -45 10 0 16 -13 19 -37 l4 -38 1 38 c2 34 4 37 33 37 31 0 31 0 27 -47 -3 -46 -4 -48 -38 -54 l-35 -6 38 -2 c34 -1 37 -3 37 -31 l0 -30 185 0 185 0 0 435 0 435 -95 0 -95 0 0 -349 0 -348 -50 -2 -50 -1 2 45 c1 43 2 44 37 48 l36 4 -37 1 c-37 2 -38 3 -38 42 l0 40 -45 0 c-43 0 -45 1 -45 29 0 20 6 31 18 34 16 4 16 5 0 6 -15 1 -18 10 -18 51 0 48 -1 50 -27 51 -70 3 -68 2 -68 44 0 38 2 40 35 46 l35 6 -37 2 c-38 1 -38 2 -38 42 l0 41 -45 -4 -45 -3 0 87 0 88 -140 0 -140 0 0 -435z" fill="#673ab7"/>
<path d="M8970 816 l0 -435 28 -3 c15 -2 163 -2 330 0 l302 3 0 29 c0 31 23 43 33 18 4 -10 6 -10 6 0 1 8 -8 16 -19 19 -17 4 -20 14 -20 54 l0 49 -205 0 -205 0 0 29 c0 16 6 32 13 34 7 3 5 6 -5 6 -14 1 -18 -7 -18 -34 0 -32 -2 -35 -30 -35 l-30 0 0 90 0 90 145 0 145 0 0 85 0 85 -111 0 -111 0 4 35 c2 19 0 35 -4 35 -4 0 -8 -16 -8 -35 0 -32 -2 -35 -30 -35 l-30 0 0 90 0 90 240 0 240 0 0 31 c0 26 3 31 20 26 11 -3 20 -1 20 4 0 5 -9 9 -20 9 -17 0 -20 7 -20 50 l0 50 -330 0 -330 0 0 -434z" fill="#673ab7"/>
<path d="M10110 815 c0 -341 3 -435 13 -435 75 -3 632 2 636 6 6 6 5 154 -1 159 -2 3 -109 5 -236 5 l-232 1 0 90 0 89 140 0 140 0 0 30 c0 24 4 30 23 31 20 1 21 1 2 7 -15 5 -21 18 -24 52 -1 25 -4 46 -5 47 -1 2 -64 3 -139 4 l-137 1 0 89 0 89 235 0 235 0 0 30 c0 24 4 30 23 31 20 1 21 1 2 7 -11 4 -20 13 -21 20 -1 6 -2 28 -2 47 l-2 35 -325 0 -325 0 0 -435z" fill="#673ab7"/>
<path d="M10870 815 l0 -435 325 0 325 0 0 30 c0 24 4 30 23 31 21 1 21 1 2 7 -16 6 -21 17 -24 52 -1 25 -4 46 -5 47 -1 1 -97 3 -214 3 l-212 1 0 300 c0 292 0 299 -20 299 -17 0 -20 7 -20 50 l0 50 -90 0 -90 0 0 -435z m210 30 c0 -256 -2 -295 -15 -295 -13 0 -15 39 -15 295 0 256 2 295 15 295 13 0 15 -39 15 -295z" fill="#673ab7"/>
<path d="M11620 816 c0 -391 2 -435 16 -438 9 -2 52 -2 95 0 l79 4 0 174 0 174 145 0 145 0 0 -174 0 -175 28 -3 c15 -2 55 -1 90 0 l62 4 0 378 0 379 23 4 22 4 -22 2 c-21 1 -23 6 -23 51 l0 50 -90 0 -90 0 0 -175 0 -176 -145 2 -145 1 0 174 0 174 -95 0 -95 0 0 -434z" fill="#673ab7"/>
<path d="M12480 1166 l0 -85 -47 -3 -48 -3 -3 -347 c-2 -313 -1 -347 14 -350 9 -2 52 -2 95 0 l79 4 0 174 0 175 143 -3 142 -3 3 -37 3 -38 -53 -2 -53 -1 51 -6 51 -6 2 -125 c1 -69 6 -127 10 -130 5 -3 11 -12 14 -20 4 -12 6 -11 6 3 1 10 7 17 14 16 6 -1 40 -1 75 0 l62 1 0 351 0 351 -50 -4 -50 -3 0 88 0 87 -230 0 -230 0 0 -84z m378 -128 l3 -38 -53 -2 -53 -1 50 -6 50 -6 0 -40 0 -40 -122 -3 -123 -3 0 45 0 45 73 4 72 3 -77 2 -78 2 0 -50 c0 -38 -4 -50 -15 -50 -12 0 -15 17 -15 90 l0 91 143 -3 142 -3 3 -37z" fill="#673ab7"/>
<path d="M13140 815 c0 -464 -3 -437 45 -437 8 0 42 0 75 1 l60 1 0 259 0 259 51 4 c28 1 53 1 55 -1 2 -2 4 -26 4 -52 0 -42 -3 -48 -22 -51 -19 -2 -23 -10 -24 -41 l-1 -37 4 35 c3 27 9 35 24 35 14 0 19 -7 19 -30 0 -31 4 -33 58 -32 l32 2 0 -90 0 -89 90 0 90 0 0 90 0 89 50 0 50 0 0 84 0 84 50 4 50 3 0 -262 0 -262 28 -3 c15 -2 55 -1 90 0 l62 4 0 379 0 379 23 1 c20 1 21 1 2 7 -11 4 -20 13 -21 20 -1 6 -2 28 -2 47 l-2 35 -140 0 -140 0 0 -85 0 -85 -45 0 -45 0 0 -90 0 -90 -100 1 -100 1 2 44 c1 42 2 43 37 47 l36 4 -37 1 c-37 2 -38 3 -38 43 l0 41 -45 -4 -45 -3 0 87 0 88 -140 0 -140 0 0 -435z" fill="#673ab7"/>
<path d="M14180 816 c0 -397 1 -435 17 -438 9 -2 157 -2 330 0 l313 3 0 85 0 85 -187 -1 c-104 0 -200 -1 -215 0 -26 0 -28 3 -28 44 0 41 2 45 28 49 25 4 25 4 -5 6 l-33 1 0 -50 c0 -38 -4 -50 -15 -50 -12 0 -15 17 -15 90 l0 90 140 0 140 0 0 29 c0 23 5 31 23 34 l22 4 -22 2 c-21 1 -23 6 -23 51 l0 50 -120 0 -120 0 0 44 c0 41 2 45 28 49 25 4 25 4 -5 6 l-33 1 0 -50 c0 -38 -4 -50 -15 -50 -12 0 -15 17 -15 90 l0 90 235 0 235 0 0 85 0 85 -330 0 -330 0 0 -434z" fill="#673ab7"/>
<path d="M14940 815 l0 -435 330 0 330 0 0 85 0 85 -235 0 -235 0 -1 263 c0 144 -2 270 -4 281 -5 26 4 44 23 49 13 4 12 5 -3 6 -18 1 -21 7 -19 51 l1 50 -94 0 -93 0 0 -435z" fill="#673ab7"/>
<path d="M8361 1154 c0 -11 3 -14 6 -6 3 7 2 16 -1 19 -3 4 -6 -2 -5 -13z" fill="#673ab7"/>
<path d="M3768 1143 c7 -3 16 -2 19 1 4 3 -2 6 -13 5 -11 0 -14 -3 -6 -6z" fill="#673ab7"/>
<path d="M6510 1146 c0 -2 7 -6 15 -10 8 -3 15 -1 15 4 0 6 -7 10 -15 10 -8 0 -15 -2 -15 -4z" fill="#673ab7"/>
<path d="M8318 1143 c7 -3 16 -2 19 1 4 3 -2 6 -13 5 -11 0 -14 -3 -6 -6z" fill="#673ab7"/>
<path d="M8888 1143 c7 -3 16 -2 19 1 4 3 -2 6 -13 5 -11 0 -14 -3 -6 -6z" fill="#673ab7"/>
<path d="M12958 1143 c7 -3 16 -2 19 1 4 3 -2 6 -13 5 -11 0 -14 -3 -6 -6z" fill="#673ab7"/>
<path d="M13430 1146 c0 -2 7 -6 15 -10 8 -3 15 -1 15 4 0 6 -7 10 -15 10 -8 0 -15 -2 -15 -4z" fill="#673ab7"/>
<path d="M14858 1143 c7 -3 16 -2 19 1 4 3 -2 6 -13 5 -11 0 -14 -3 -6 -6z" fill="#673ab7"/>
<path d="M9660 1011 c0 -5 -8 -12 -17 -14 -14 -4 -12 -5 5 -6 13 -1 22 5 22 14 0 8 -2 15 -5 15 -3 0 -5 -4 -5 -9z" fill="#673ab7"/>
<path d="M1593 993 c9 -2 23 -2 30 0 6 3 -1 5 -18 5 -16 0 -22 -2 -12 -5z" fill="#673ab7"/>
<path d="M2688 993 c23 -2 59 -2 80 0 20 2 1 4 -43 4 -44 0 -61 -2 -37 -4z" fill="#673ab7"/>
<path d="M2853 993 c26 -2 68 -2 95 0 26 2 4 3 -48 3 -52 0 -74 -1 -47 -3z" fill="#673ab7"/>
<path d="M3018 993 c12 -2 32 -2 45 0 12 2 2 4 -23 4 -25 0 -35 -2 -22 -4z" fill="#673ab7"/>
<path d="M3108 993 c7 -3 16 -2 19 1 4 3 -2 6 -13 5 -11 0 -14 -3 -6 -6z" fill="#673ab7"/>
<path d="M4623 993 c9 -2 25 -2 35 0 9 3 1 5 -18 5 -19 0 -27 -2 -17 -5z" fill="#673ab7"/>
<path d="M7943 993 c9 -2 23 -2 30 0 6 3 -1 5 -18 5 -16 0 -22 -2 -12 -5z" fill="#673ab7"/>
<path d="M9203 993 c9 -2 25 -2 35 0 9 3 1 5 -18 5 -19 0 -27 -2 -17 -5z" fill="#673ab7"/>
<path d="M9278 993 c12 -2 32 -2 45 0 12 2 2 4 -23 4 -25 0 -35 -2 -22 -4z" fill="#673ab7"/>
<path d="M9393 993 c26 -2 68 -2 95 0 26 2 4 3 -48 3 -52 0 -74 -1 -47 -3z" fill="#673ab7"/>
<path d="M9558 993 c12 -2 32 -2 45 0 12 2 2 4 -23 4 -25 0 -35 -2 -22 -4z" fill="#673ab7"/>
<path d="M10368 993 c23 -2 59 -2 80 0 20 2 1 4 -43 4 -44 0 -61 -2 -37 -4z" fill="#673ab7"/>
<path d="M10508 993 c12 -2 32 -2 45 0 12 2 2 4 -23 4 -25 0 -35 -2 -22 -4z" fill="#673ab7"/>
<path d="M10603 993 c15 -2 37 -2 50 0 12 2 0 4 -28 4 -27 0 -38 -2 -22 -4z" fill="#673ab7"/>
<path d="M10708 993 c17 -2 47 -2 65 0 17 2 3 4 -33 4 -36 0 -50 -2 -32 -4z" fill="#673ab7"/>
<path d="M13063 993 c9 -2 23 -2 30 0 6 3 -1 5 -18 5 -16 0 -22 -2 -12 -5z" fill="#673ab7"/>
<path d="M14513 993 c26 -2 68 -2 95 0 26 2 4 3 -48 3 -52 0 -74 -1 -47 -3z" fill="#673ab7"/>
<path d="M14703 993 c26 -2 68 -2 95 0 26 2 4 3 -48 3 -52 0 -74 -1 -47 -3z" fill="#673ab7"/>
<path d="M14858 993 c7 -3 16 -2 19 1 4 3 -2 6 -13 5 -11 0 -14 -3 -6 -6z" fill="#673ab7"/>
<path d="M2358 803 c4 -310 8 -340 10 -85 1 138 -1 252 -5 252 -5 0 -7 -75 -5 -167z" fill="#673ab7"/>
<path d="M8425 960 c3 -5 8 -10 11 -10 2 0 4 5 4 10 0 6 -5 10 -11 10 -5 0 -7 -4 -4 -10z" fill="#673ab7"/>
<path d="M4543 780 c0 -25 2 -35 4 -22 2 12 2 32 0 45 -2 12 -4 2 -4 -23z" fill="#673ab7"/>
<path d="M6910 736 l0 -85 -47 -4 -48 -3 53 -2 52 -2 0 90 c0 50 -2 90 -5 90 -3 0 -5 -38 -5 -84z" fill="#673ab7"/>
<path d="M13830 736 l0 -85 -47 -4 -48 -3 53 -2 52 -2 0 90 c0 50 -2 90 -5 90 -3 0 -5 -38 -5 -84z" fill="#673ab7"/>
<path d="M1593 793 c9 -2 23 -2 30 0 6 3 -1 5 -18 5 -16 0 -22 -2 -12 -5z" fill="#673ab7"/>
<path d="M3810 792 c0 -4 17 -6 38 -4 64 6 69 10 15 11 -29 0 -53 -3 -53 -7z" fill="#673ab7"/>
<path d="M4578 793 c7 -3 16 -2 19 1 4 3 -2 6 -13 5 -11 0 -14 -3 -6 -6z" fill="#673ab7"/>
<path d="M4623 793 c9 -2 25 -2 35 0 9 3 1 5 -18 5 -19 0 -27 -2 -17 -5z" fill="#673ab7"/>
<path d="M6948 793 c7 -3 16 -2 19 1 4 3 -2 6 -13 5 -11 0 -14 -3 -6 -6z" fill="#673ab7"/>
<path d="M8266 791 c-4 -5 3 -7 14 -4 23 6 26 13 6 13 -8 0 -17 -4 -20 -9z" fill="#673ab7"/>
<path d="M13868 793 c7 -3 16 -2 19 1 4 3 -2 6 -13 5 -11 0 -14 -3 -6 -6z" fill="#673ab7"/>
<path d="M874 540 c0 -85 2 -120 3 -77 2 42 2 112 0 155 -1 42 -3 7 -3 -78z" fill="#673ab7"/>
<path d="M13384 495 c0 -110 2 -156 3 -103 2 53 2 143 0 200 -1 57 -3 13 -3 -97z" fill="#673ab7"/>
<path d="M370 633 c0 -12 3 -14 8 -7 4 7 18 14 32 17 21 4 20 4 -7 6 -25 1 -33 -3 -33 -16z" fill="#673ab7"/>
<path d="M463 643 c15 -2 37 -2 50 0 12 2 0 4 -28 4 -27 0 -38 -2 -22 -4z" fill="#673ab7"/>
<path d="M1593 643 c9 -2 23 -2 30 0 6 3 -1 5 -18 5 -16 0 -22 -2 -12 -5z" fill="#673ab7"/>
<path d="M2688 643 c23 -2 59 -2 80 0 20 2 1 4 -43 4 -44 0 -61 -2 -37 -4z" fill="#673ab7"/>
<path d="M2838 643 c17 -2 47 -2 65 0 17 2 3 4 -33 4 -36 0 -50 -2 -32 -4z" fill="#673ab7"/>
<path d="M3423 643 c9 -2 23 -2 30 0 6 3 -1 5 -18 5 -16 0 -22 -2 -12 -5z" fill="#673ab7"/>
<path d="M3493 643 c15 -2 37 -2 50 0 12 2 0 4 -28 4 -27 0 -38 -2 -22 -4z" fill="#673ab7"/>
<path d="M3588 643 c12 -2 32 -2 45 0 12 2 2 4 -23 4 -25 0 -35 -2 -22 -4z" fill="#673ab7"/>
<path d="M4183 643 c9 -2 23 -2 30 0 6 3 -1 5 -18 5 -16 0 -22 -2 -12 -5z" fill="#673ab7"/>
<path d="M4623 643 c9 -2 25 -2 35 0 9 3 1 5 -18 5 -19 0 -27 -2 -17 -5z" fill="#673ab7"/>
<path d="M4943 643 c9 -2 23 -2 30 0 6 3 -1 5 -18 5 -16 0 -22 -2 -12 -5z" fill="#673ab7"/>
<path d="M5033 643 c26 -2 68 -2 95 0 26 2 4 3 -48 3 -52 0 -74 -1 -47 -3z" fill="#673ab7"/>
<path d="M5680 476 c0 -130 -3 -176 -12 -179 -8 -3 -6 -6 5 -6 16 -1 17 14 17 174 l0 174 73 4 72 3 -77 2 -78 2 0 -174z" fill="#673ab7"/>
<path d="M7480 476 c0 -130 -3 -176 -12 -179 -8 -3 -6 -6 5 -6 16 -1 17 14 17 174 l0 174 73 4 72 3 -77 2 -78 2 0 -174z" fill="#673ab7"/>
<path d="M7663 643 c15 -2 37 -2 50 0 12 2 0 4 -28 4 -27 0 -38 -2 -22 -4z" fill="#673ab7"/>
<path d="M9203 643 c9 -2 23 -2 30 0 6 3 -1 5 -18 5 -16 0 -22 -2 -12 -5z" fill="#673ab7"/>
<path d="M9278 643 c12 -2 32 -2 45 0 12 2 2 4 -23 4 -25 0 -35 -2 -22 -4z" fill="#673ab7"/>
<path d="M9373 643 c15 -2 37 -2 50 0 12 2 0 4 -28 4 -27 0 -38 -2 -22 -4z" fill="#673ab7"/>
<path d="M9458 643 c7 -3 16 -2 19 1 4 3 -2 6 -13 5 -11 0 -14 -3 -6 -6z" fill="#673ab7"/>
<path d="M10368 643 c23 -2 59 -2 80 0 20 2 1 4 -43 4 -44 0 -61 -2 -37 -4z" fill="#673ab7"/>
<path d="M10508 643 c12 -2 32 -2 45 0 12 2 2 4 -23 4 -25 0 -35 -2 -22 -4z" fill="#673ab7"/>
<path d="M10588 643 c7 -3 16 -2 19 1 4 3 -2 6 -13 5 -11 0 -14 -3 -6 -6z" fill="#673ab7"/>
<path d="M11863 643 c9 -2 23 -2 30 0 6 3 -1 5 -18 5 -16 0 -22 -2 -12 -5z" fill="#673ab7"/>
<path d="M11953 643 c26 -2 68 -2 95 0 26 2 4 3 -48 3 -52 0 -74 -1 -47 -3z" fill="#673ab7"/>
<path d="M12600 476 c0 -130 -3 -176 -12 -179 -8 -3 -6 -6 5 -6 16 -1 17 14 17 174 l0 174 73 4 72 3 -77 2 -78 2 0 -174z" fill="#673ab7"/>
<path d="M13488 643 c7 -3 16 -2 19 1 4 3 -2 6 -13 5 -11 0 -14 -3 -6 -6z" fill="#673ab7"/>
<path d="M14513 643 c26 -2 68 -2 95 0 26 2 4 3 -48 3 -52 0 -74 -1 -47 -3z" fill="#673ab7"/>
<path d="M14668 643 c7 -3 16 -2 19 1 4 3 -2 6 -13 5 -11 0 -14 -3 -6 -6z" fill="#673ab7"/>
<path d="M1588 613 c7 -3 16 -2 19 1 4 3 -2 6 -13 5 -11 0 -14 -3 -6 -6z" fill="#673ab7"/>
<path d="M2743 613 c9 -2 25 -2 35 0 9 3 1 5 -18 5 -19 0 -27 -2 -17 -5z" fill="#673ab7"/>
<path d="M4198 613 c7 -3 16 -2 19 1 4 3 -2 6 -13 5 -11 0 -14 -3 -6 -6z" fill="#673ab7"/>
<path d="M4258 613 c12 -2 30 -2 40 0 9 3 -1 5 -23 4 -22 0 -30 -2 -17 -4z" fill="#673ab7"/>
<path d="M4618 613 c7 -3 16 -2 19 1 4 3 -2 6 -13 5 -11 0 -14 -3 -6 -6z" fill="#673ab7"/>
<path d="M5003 613 c9 -2 23 -2 30 0 6 3 -1 5 -18 5 -16 0 -22 -2 -12 -5z" fill="#673ab7"/>
<path d="M5718 613 c7 -3 16 -2 19 1 4 3 -2 6 -13 5 -11 0 -14 -3 -6 -6z" fill="#673ab7"/>
<path d="M5788 613 c6 -2 18 -2 25 0 6 3 1 5 -13 5 -14 0 -19 -2 -12 -5z" fill="#673ab7"/>
<path d="M6848 613 c7 -3 16 -2 19 1 4 3 -2 6 -13 5 -11 0 -14 -3 -6 -6z" fill="#673ab7"/>
<path d="M7593 613 c9 -2 23 -2 30 0 6 3 -1 5 -18 5 -16 0 -22 -2 -12 -5z" fill="#673ab7"/>
<path d="M9308 613 c6 -2 18 -2 25 0 6 3 1 5 -13 5 -14 0 -19 -2 -12 -5z" fill="#673ab7"/>
<path d="M10358 613 c7 -3 16 -2 19 1 4 3 -2 6 -13 5 -11 0 -14 -3 -6 -6z" fill="#673ab7"/>
<path d="M10438 613 c7 -3 16 -2 19 1 4 3 -2 6 -13 5 -11 0 -14 -3 -6 -6z" fill="#673ab7"/>
<path d="M11933 613 c9 -2 25 -2 35 0 9 3 1 5 -18 5 -19 0 -27 -2 -17 -5z" fill="#673ab7"/>
<path d="M12638 613 c7 -3 16 -2 19 1 4 3 -2 6 -13 5 -11 0 -14 -3 -6 -6z" fill="#673ab7"/>
<path d="M12808 613 c6 -2 18 -2 25 0 6 3 1 5 -13 5 -14 0 -19 -2 -12 -5z" fill="#673ab7"/>
<path d="M13768 613 c7 -3 16 -2 19 1 4 3 -2 6 -13 5 -11 0 -14 -3 -6 -6z" fill="#673ab7"/>
<path d="M13828 613 c7 -3 16 -2 19 1 4 3 -2 6 -13 5 -11 0 -14 -3 -6 -6z" fill="#673ab7"/>
<path d="M14438 613 c7 -3 16 -2 19 1 4 3 -2 6 -13 5 -11 0 -14 -3 -6 -6z" fill="#673ab7"/>
<path d="M14498 613 c12 -2 30 -2 40 0 9 3 -1 5 -23 4 -22 0 -30 -2 -17 -4z" fill="#673ab7"/>
<path d="M14593 613 c9 -2 23 -2 30 0 6 3 -1 5 -18 5 -16 0 -22 -2 -12 -5z" fill="#673ab7"/>
<path d="M373 550 c0 -36 2 -50 4 -32 2 17 2 47 0 65 -2 17 -4 3 -4 -33z" fill="#673ab7"/>
<path d="M1593 443 c9 -2 23 -2 30 0 6 3 -1 5 -18 5 -16 0 -22 -2 -12 -5z" fill="#673ab7"/>
<path d="M2297 443 c-4 -3 -7 -44 -7 -89 0 -82 0 -83 -27 -87 -27 -5 -27 -5 2 -3 l30 1 3 85 c2 52 8 87 15 92 7 5 8 8 1 8 -6 0 -14 -3 -17 -7z" fill="#673ab7"/>
<path d="M2353 443 c9 -2 23 -2 30 0 6 3 -1 5 -18 5 -16 0 -22 -2 -12 -5z" fill="#673ab7"/>
<path d="M6643 443 c9 -2 23 -2 30 0 6 3 -1 5 -18 5 -16 0 -22 -2 -12 -5z" fill="#673ab7"/>
<path d="M6718 443 c12 -2 32 -2 45 0 12 2 2 4 -23 4 -25 0 -35 -2 -22 -4z" fill="#673ab7"/>
<path d="M6813 443 c9 -2 23 -2 30 0 6 3 -1 5 -18 5 -16 0 -22 -2 -12 -5z" fill="#673ab7"/>
<path d="M11581 434 c0 -11 3 -14 6 -6 3 7 2 16 -1 19 -3 4 -6 -2 -5 -13z" fill="#673ab7"/>
<path d="M13563 443 c9 -2 25 -2 35 0 9 3 1 5 -18 5 -19 0 -27 -2 -17 -5z" fill="#673ab7"/>
<path d="M13638 443 c12 -2 30 -2 40 0 9 3 -1 5 -23 4 -22 0 -30 -2 -17 -4z" fill="#673ab7"/>
<path d="M13733 443 c9 -2 23 -2 30 0 6 3 -1 5 -18 5 -16 0 -22 -2 -12 -5z" fill="#673ab7"/>
<path d="M11582 343 c-2 -70 -3 -72 -29 -76 l-28 -4 28 -2 c35 -1 39 10 34 90 l-3 64 -2 -72z" fill="#673ab7"/>
<path d="M371 374 c0 -11 3 -14 6 -6 3 7 2 16 -1 19 -3 4 -6 -2 -5 -13z" fill="#673ab7"/>
<path d="M871 364 c0 -11 3 -14 6 -6 3 7 2 16 -1 19 -3 4 -6 -2 -5 -13z" fill="#673ab7"/>
<path d="M10162 335 c0 -16 2 -22 5 -12 2 9 2 23 0 30 -3 6 -5 -1 -5 -18z" fill="#673ab7"/>
<path d="M371 334 c0 -11 3 -14 6 -6 3 7 2 16 -1 19 -3 4 -6 -2 -5 -13z" fill="#673ab7"/>
<path d="M11652 325 c0 -16 2 -22 5 -12 2 9 2 23 0 30 -3 6 -5 -1 -5 -18z" fill="#673ab7"/>
<path d="M9660 311 c0 -5 -8 -12 -17 -14 -14 -4 -12 -5 5 -6 13 -1 22 5 22 14 0 8 -2 15 -5 15 -3 0 -5 -4 -5 -9z" fill="#673ab7"/>
<path d="M355 300 c-19 -8 -19 -9 3 -9 12 -1 22 4 22 9 0 6 -1 10 -2 9 -2 0 -12 -4 -23 -9z" fill="#673ab7"/>
<path d="M218 293 c7 -3 16 -2 19 1 4 3 -2 6 -13 5 -11 0 -14 -3 -6 -6z" fill="#673ab7"/>
<path d="M268 293 c12 -2 32 -2 45 0 12 2 2 4 -23 4 -25 0 -35 -2 -22 -4z" fill="#673ab7"/>
<path d="M688 293 c7 -3 16 -2 19 1 4 3 -2 6 -13 5 -11 0 -14 -3 -6 -6z" fill="#673ab7"/>
<path d="M748 293 c12 -2 32 -2 45 0 12 2 2 4 -23 4 -25 0 -35 -2 -22 -4z" fill="#673ab7"/>
<path d="M828 293 c7 -3 16 -2 19 1 4 3 -2 6 -13 5 -11 0 -14 -3 -6 -6z" fill="#673ab7"/>
<path d="M978 293 c7 -3 16 -2 19 1 4 3 -2 6 -13 5 -11 0 -14 -3 -6 -6z" fill="#673ab7"/>
<path d="M1033 293 c15 -2 37 -2 50 0 12 2 0 4 -28 4 -27 0 -38 -2 -22 -4z" fill="#673ab7"/>
<path d="M1128 293 c12 -2 32 -2 45 0 12 2 2 4 -23 4 -25 0 -35 -2 -22 -4z" fill="#673ab7"/>
<path d="M1218 293 c12 -2 32 -2 45 0 12 2 2 4 -23 4 -25 0 -35 -2 -22 -4z" fill="#673ab7"/>
<path d="M1313 293 c15 -2 37 -2 50 0 12 2 0 4 -28 4 -27 0 -38 -2 -22 -4z" fill="#673ab7"/>
<path d="M1408 293 c12 -2 32 -2 45 0 12 2 2 4 -23 4 -25 0 -35 -2 -22 -4z" fill="#673ab7"/>
<path d="M1488 293 c7 -3 16 -2 19 1 4 3 -2 6 -13 5 -11 0 -14 -3 -6 -6z" fill="#673ab7"/>
<path d="M1738 293 c7 -3 16 -2 19 1 4 3 -2 6 -13 5 -11 0 -14 -3 -6 -6z" fill="#673ab7"/>
<path d="M1788 293 c12 -2 32 -2 45 0 12 2 2 4 -23 4 -25 0 -35 -2 -22 -4z" fill="#673ab7"/>
<path d="M1883 293 c15 -2 37 -2 50 0 12 2 0 4 -28 4 -27 0 -38 -2 -22 -4z" fill="#673ab7"/>
<path d="M1978 293 c12 -2 32 -2 45 0 12 2 2 4 -23 4 -25 0 -35 -2 -22 -4z" fill="#673ab7"/>
<path d="M2078 293 c12 -2 30 -2 40 0 9 3 -1 5 -23 4 -22 0 -30 -2 -17 -4z" fill="#673ab7"/>
<path d="M2168 293 c12 -2 32 -2 45 0 12 2 2 4 -23 4 -25 0 -35 -2 -22 -4z" fill="#673ab7"/>
<path d="M2248 293 c7 -3 16 -2 19 1 4 3 -2 6 -13 5 -11 0 -14 -3 -6 -6z" fill="#673ab7"/>
<path d="M2488 293 c7 -3 16 -2 19 1 4 3 -2 6 -13 5 -11 0 -14 -3 -6 -6z" fill="#673ab7"/>
<path d="M2548 293 c12 -2 32 -2 45 0 12 2 2 4 -23 4 -25 0 -35 -2 -22 -4z" fill="#673ab7"/>
<path d="M2648 293 c12 -2 30 -2 40 0 9 3 -1 5 -23 4 -22 0 -30 -2 -17 -4z" fill="#673ab7"/>
<path d="M2733 293 c15 -2 37 -2 50 0 12 2 0 4 -28 4 -27 0 -38 -2 -22 -4z" fill="#673ab7"/>
<path d="M2853 293 c26 -2 67 -2 90 0 23 2 2 3 -48 3 -49 0 -68 -1 -42 -3z" fill="#673ab7"/>
<path d="M3018 293 c12 -2 32 -2 45 0 12 2 2 4 -23 4 -25 0 -35 -2 -22 -4z" fill="#673ab7"/>
<path d="M3108 293 c7 -3 16 -2 19 1 4 3 -2 6 -13 5 -11 0 -14 -3 -6 -6z" fill="#673ab7"/>
<path d="M3308 293 c12 -2 32 -2 45 0 12 2 2 4 -23 4 -25 0 -35 -2 -22 -4z" fill="#673ab7"/>
<path d="M3388 293 c7 -3 16 -2 19 1 4 3 -2 6 -13 5 -11 0 -14 -3 -6 -6z" fill="#673ab7"/>
<path d="M3728 293 c7 -3 16 -2 19 1 4 3 -2 6 -13 5 -11 0 -14 -3 -6 -6z" fill="#673ab7"/>
<path d="M3788 293 c17 -2 47 -2 65 0 17 2 3 4 -33 4 -36 0 -50 -2 -32 -4z" fill="#673ab7"/>
<path d="M4008 293 c7 -3 16 -2 19 1 4 3 -2 6 -13 5 -11 0 -14 -3 -6 -6z" fill="#673ab7"/>
<path d="M4058 293 c12 -2 32 -2 45 0 12 2 2 4 -23 4 -25 0 -35 -2 -22 -4z" fill="#673ab7"/>
<path d="M4148 293 c7 -3 16 -2 19 1 4 3 -2 6 -13 5 -11 0 -14 -3 -6 -6z" fill="#673ab7"/>
<path d="M4478 293 c7 -3 16 -2 19 1 4 3 -2 6 -13 5 -11 0 -14 -3 -6 -6z" fill="#673ab7"/>
<path d="M4533 293 c15 -2 37 -2 50 0 12 2 0 4 -28 4 -27 0 -38 -2 -22 -4z" fill="#673ab7"/>
<path d="M4618 293 c7 -3 16 -2 19 1 4 3 -2 6 -13 5 -11 0 -14 -3 -6 -6z" fill="#673ab7"/>
<path d="M4768 293 c7 -3 16 -2 19 1 4 3 -2 6 -13 5 -11 0 -14 -3 -6 -6z" fill="#673ab7"/>
<path d="M4818 293 c12 -2 32 -2 45 0 12 2 2 4 -23 4 -25 0 -35 -2 -22 -4z" fill="#673ab7"/>
<path d="M4908 293 c7 -3 16 -2 19 1 4 3 -2 6 -13 5 -11 0 -14 -3 -6 -6z" fill="#673ab7"/>
<path d="M5238 293 c6 -2 18 -2 25 0 6 3 1 5 -13 5 -14 0 -19 -2 -12 -5z" fill="#673ab7"/>
<path d="M5298 293 c12 -2 32 -2 45 0 12 2 2 4 -23 4 -25 0 -35 -2 -22 -4z" fill="#673ab7"/>
<path d="M5378 293 c7 -3 16 -2 19 1 4 3 -2 6 -13 5 -11 0 -14 -3 -6 -6z" fill="#673ab7"/>
<path d="M5528 293 c7 -3 16 -2 19 1 4 3 -2 6 -13 5 -11 0 -14 -3 -6 -6z" fill="#673ab7"/>
<path d="M5578 293 c12 -2 32 -2 45 0 12 2 2 4 -23 4 -25 0 -35 -2 -22 -4z" fill="#673ab7"/>
<path d="M5998 293 c7 -3 16 -2 19 1 4 3 -2 6 -13 5 -11 0 -14 -3 -6 -6z" fill="#673ab7"/>
<path d="M6053 293 c15 -2 37 -2 50 0 12 2 0 4 -28 4 -27 0 -38 -2 -22 -4z" fill="#673ab7"/>
<path d="M6138 293 c7 -3 16 -2 19 1 4 3 -2 6 -13 5 -11 0 -14 -3 -6 -6z" fill="#673ab7"/>
<path d="M6288 293 c7 -3 16 -2 19 1 4 3 -2 6 -13 5 -11 0 -14 -3 -6 -6z" fill="#673ab7"/>
<path d="M6338 293 c12 -2 32 -2 45 0 12 2 2 4 -23 4 -25 0 -35 -2 -22 -4z" fill="#673ab7"/>
<path d="M6418 293 c7 -3 16 -2 19 1 4 3 -2 6 -13 5 -11 0 -14 -3 -6 -6z" fill="#673ab7"/>
<path d="M7038 293 c6 -2 18 -2 25 0 6 3 1 5 -13 5 -14 0 -19 -2 -12 -5z" fill="#673ab7"/>
<path d="M7098 293 c12 -2 32 -2 45 0 12 2 2 4 -23 4 -25 0 -35 -2 -22 -4z" fill="#673ab7"/>
<path d="M7178 293 c7 -3 16 -2 19 1 4 3 -2 6 -13 5 -11 0 -14 -3 -6 -6z" fill="#673ab7"/>
<path d="M7328 293 c7 -3 16 -2 19 1 4 3 -2 6 -13 5 -11 0 -14 -3 -6 -6z" fill="#673ab7"/>
<path d="M7378 293 c12 -2 32 -2 45 0 12 2 2 4 -23 4 -25 0 -35 -2 -22 -4z" fill="#673ab7"/>
<path d="M7798 293 c7 -3 16 -2 19 1 4 3 -2 6 -13 5 -11 0 -14 -3 -6 -6z" fill="#673ab7"/>
<path d="M7853 293 c15 -2 37 -2 50 0 12 2 0 4 -28 4 -27 0 -38 -2 -22 -4z" fill="#673ab7"/>
<path d="M7938 293 c7 -3 16 -2 19 1 4 3 -2 6 -13 5 -11 0 -14 -3 -6 -6z" fill="#673ab7"/>
<path d="M8088 293 c7 -3 16 -2 19 1 4 3 -2 6 -13 5 -11 0 -14 -3 -6 -6z" fill="#673ab7"/>
<path d="M8138 293 c12 -2 32 -2 45 0 12 2 2 4 -23 4 -25 0 -35 -2 -22 -4z" fill="#673ab7"/>
<path d="M8218 293 c7 -3 16 -2 19 1 4 3 -2 6 -13 5 -11 0 -14 -3 -6 -6z" fill="#673ab7"/>
<path d="M8558 293 c7 -3 16 -2 19 1 4 3 -2 6 -13 5 -11 0 -14 -3 -6 -6z" fill="#673ab7"/>
<path d="M8633 293 c26 -2 68 -2 95 0 26 2 4 3 -48 3 -52 0 -74 -1 -47 -3z" fill="#673ab7"/>
<path d="M8803 293 c15 -2 37 -2 50 0 12 2 0 4 -28 4 -27 0 -38 -2 -22 -4z" fill="#673ab7"/>
<path d="M8888 293 c7 -3 16 -2 19 1 4 3 -2 6 -13 5 -11 0 -14 -3 -6 -6z" fill="#673ab7"/>
<path d="M9028 293 c7 -3 16 -2 19 1 4 3 -2 6 -13 5 -11 0 -14 -3 -6 -6z" fill="#673ab7"/>
<path d="M9088 293 c12 -2 32 -2 45 0 12 2 2 4 -23 4 -25 0 -35 -2 -22 -4z" fill="#673ab7"/>
<path d="M9178 293 c12 -2 32 -2 45 0 12 2 2 4 -23 4 -25 0 -35 -2 -22 -4z" fill="#673ab7"/>
<path d="M9278 293 c12 -2 32 -2 45 0 12 2 2 4 -23 4 -25 0 -35 -2 -22 -4z" fill="#673ab7"/>
<path d="M9373 293 c15 -2 37 -2 50 0 12 2 0 4 -28 4 -27 0 -38 -2 -22 -4z" fill="#673ab7"/>
<path d="M9468 293 c12 -2 32 -2 45 0 12 2 2 4 -23 4 -25 0 -35 -2 -22 -4z" fill="#673ab7"/>
<path d="M9558 293 c12 -2 32 -2 45 0 12 2 2 4 -23 4 -25 0 -35 -2 -22 -4z" fill="#673ab7"/>
<path d="M10168 293 c7 -3 16 -2 19 1 4 3 -2 6 -13 5 -11 0 -14 -3 -6 -6z" fill="#673ab7"/>
<path d="M10223 293 c15 -2 37 -2 50 0 12 2 0 4 -28 4 -27 0 -38 -2 -22 -4z" fill="#673ab7"/>
<path d="M10323 293 c15 -2 37 -2 50 0 12 2 0 4 -28 4 -27 0 -38 -2 -22 -4z" fill="#673ab7"/>
<path d="M10418 293 c12 -2 32 -2 45 0 12 2 2 4 -23 4 -25 0 -35 -2 -22 -4z" fill="#673ab7"/>
<path d="M10508 293 c12 -2 32 -2 45 0 12 2 2 4 -23 4 -25 0 -35 -2 -22 -4z" fill="#673ab7"/>
<path d="M10603 293 c15 -2 37 -2 50 0 12 2 0 4 -28 4 -27 0 -38 -2 -22 -4z" fill="#673ab7"/>
<path d="M10708 293 c17 -2 47 -2 65 0 17 2 3 4 -33 4 -36 0 -50 -2 -32 -4z" fill="#673ab7"/>
<path d="M10928 293 c7 -3 16 -2 19 1 4 3 -2 6 -13 5 -11 0 -14 -3 -6 -6z" fill="#673ab7"/>
<path d="M11003 293 c26 -2 68 -2 95 0 26 2 4 3 -48 3 -52 0 -74 -1 -47 -3z" fill="#673ab7"/>
<path d="M11173 293 c15 -2 37 -2 50 0 12 2 0 4 -28 4 -27 0 -38 -2 -22 -4z" fill="#673ab7"/>
<path d="M11268 293 c12 -2 32 -2 45 0 12 2 2 4 -23 4 -25 0 -35 -2 -22 -4z" fill="#673ab7"/>
<path d="M11368 293 c12 -2 32 -2 45 0 12 2 2 4 -23 4 -25 0 -35 -2 -22 -4z" fill="#673ab7"/>
<path d="M11458 293 c12 -2 32 -2 45 0 12 2 2 4 -23 4 -25 0 -35 -2 -22 -4z" fill="#673ab7"/>
<path d="M11538 293 c7 -3 16 -2 19 1 4 3 -2 6 -13 5 -11 0 -14 -3 -6 -6z" fill="#673ab7"/>
<path d="M11688 293 c7 -3 16 -2 19 1 4 3 -2 6 -13 5 -11 0 -14 -3 -6 -6z" fill="#673ab7"/>
<path d="M11738 293 c12 -2 32 -2 45 0 12 2 2 4 -23 4 -25 0 -35 -2 -22 -4z" fill="#673ab7"/>
<path d="M11828 293 c7 -3 16 -2 19 1 4 3 -2 6 -13 5 -11 0 -14 -3 -6 -6z" fill="#673ab7"/>
<path d="M12158 293 c6 -2 18 -2 25 0 6 3 1 5 -13 5 -14 0 -19 -2 -12 -5z" fill="#673ab7"/>
<path d="M12218 293 c12 -2 32 -2 45 0 12 2 2 4 -23 4 -25 0 -35 -2 -22 -4z" fill="#673ab7"/>
<path d="M12298 293 c7 -3 16 -2 19 1 4 3 -2 6 -13 5 -11 0 -14 -3 -6 -6z" fill="#673ab7"/>
<path d="M12448 293 c7 -3 16 -2 19 1 4 3 -2 6 -13 5 -11 0 -14 -3 -6 -6z" fill="#673ab7"/>
<path d="M12498 293 c12 -2 32 -2 45 0 12 2 2 4 -23 4 -25 0 -35 -2 -22 -4z" fill="#673ab7"/>
<path d="M12884 280 c1 -9 12 -15 29 -16 24 -1 24 -1 3 3 -14 2 -27 10 -29 16 -2 7 -3 5 -3 -3z" fill="#673ab7"/>
<path d="M12918 293 c7 -3 16 -2 19 1 4 3 -2 6 -13 5 -11 0 -14 -3 -6 -6z" fill="#673ab7"/>
<path d="M12973 293 c15 -2 37 -2 50 0 12 2 0 4 -28 4 -27 0 -38 -2 -22 -4z" fill="#673ab7"/>
<path d="M13058 293 c7 -3 16 -2 19 1 4 3 -2 6 -13 5 -11 0 -14 -3 -6 -6z" fill="#673ab7"/>
<path d="M13258 293 c12 -2 32 -2 45 0 12 2 2 4 -23 4 -25 0 -35 -2 -22 -4z" fill="#673ab7"/>
<path d="M13338 293 c7 -3 16 -2 19 1 4 3 -2 6 -13 5 -11 0 -14 -3 -6 -6z" fill="#673ab7"/>
<path d="M13958 293 c6 -2 18 -2 25 0 6 3 1 5 -13 5 -14 0 -19 -2 -12 -5z" fill="#673ab7"/>
<path d="M14018 293 c12 -2 32 -2 45 0 12 2 2 4 -23 4 -25 0 -35 -2 -22 -4z" fill="#673ab7"/>
<path d="M14098 293 c7 -3 16 -2 19 1 4 3 -2 6 -13 5 -11 0 -14 -3 -6 -6z" fill="#673ab7"/>
<path d="M14248 293 c7 -3 16 -2 19 1 4 3 -2 6 -13 5 -11 0 -14 -3 -6 -6z" fill="#673ab7"/>
<path d="M14298 293 c12 -2 32 -2 45 0 12 2 2 4 -23 4 -25 0 -35 -2 -22 -4z" fill="#673ab7"/>
<path d="M14398 293 c12 -2 32 -2 45 0 12 2 2 4 -23 4 -25 0 -35 -2 -22 -4z" fill="#673ab7"/>
<path d="M14493 293 c15 -2 37 -2 50 0 12 2 0 4 -28 4 -27 0 -38 -2 -22 -4z" fill="#673ab7"/>
<path d="M14588 293 c12 -2 32 -2 45 0 12 2 2 4 -23 4 -25 0 -35 -2 -22 -4z" fill="#673ab7"/>
<path d="M14678 293 c12 -2 32 -2 45 0 12 2 2 4 -23 4 -25 0 -35 -2 -22 -4z" fill="#673ab7"/>
<path d="M14773 293 c15 -2 37 -2 50 0 12 2 0 4 -28 4 -27 0 -38 -2 -22 -4z" fill="#673ab7"/>
<path d="M14858 293 c7 -3 16 -2 19 1 4 3 -2 6 -13 5 -11 0 -14 -3 -6 -6z" fill="#673ab7"/>
<path d="M15058 293 c12 -2 32 -2 45 0 12 2 2 4 -23 4 -25 0 -35 -2 -22 -4z" fill="#673ab7"/>
<path d="M15153 293 c15 -2 37 -2 50 0 12 2 0 4 -28 4 -27 0 -38 -2 -22 -4z" fill="#673ab7"/>
<path d="M15248 293 c12 -2 32 -2 45 0 12 2 2 4 -23 4 -25 0 -35 -2 -22 -4z" fill="#673ab7"/>
<path d="M15343 293 c15 -2 37 -2 50 0 12 2 0 4 -28 4 -27 0 -38 -2 -22 -4z" fill="#673ab7"/>
<path d="M15438 293 c12 -2 32 -2 45 0 12 2 2 4 -23 4 -25 0 -35 -2 -22 -4z" fill="#673ab7"/>
<path d="M15538 293 c12 -2 32 -2 45 0 12 2 2 4 -23 4 -25 0 -35 -2 -22 -4z" fill="#673ab7"/>
<path d="M15618 293 c7 -3 16 -2 19 1 4 3 -2 6 -13 5 -11 0 -14 -3 -6 -6z" fill="#673ab7"/>
<path d="M870 282 c0 -7 -12 -13 -27 -13 -26 -2 -26 -2 -4 -6 24 -5 50 11 38 24 -4 3 -7 1 -7 -5z" fill="#673ab7"/>
<path d="M11653 280 c2 -8 16 -16 33 -17 25 -1 26 0 4 4 -14 3 -29 10 -33 17 -6 7 -7 6 -4 -4z" fill="#673ab7"/>
<path d="M13380 282 c0 -7 -12 -13 -27 -13 -26 -2 -26 -2 -4 -6 24 -5 50 11 38 24 -4 3 -7 1 -7 -5z" fill="#673ab7"/>
<path d="M3699 267 c5 -5 19 -7 32 -5 20 3 19 5 -9 9 -20 3 -29 2 -23 -4z" fill="#673ab7"/>
<path d="M4635 270 l-30 -8 27 -1 c15 0 30 4 33 9 3 6 5 9 3 9 -2 -1 -16 -5 -33 -9z" fill="#673ab7"/>
<path d="M4739 267 c5 -5 19 -7 32 -5 20 3 19 5 -9 9 -20 3 -29 2 -23 -4z" fill="#673ab7"/>
<path d="M5499 267 c5 -5 19 -7 32 -5 20 3 19 5 -9 9 -20 3 -29 2 -23 -4z" fill="#673ab7"/>
<path d="M5969 267 c5 -5 19 -7 32 -5 20 3 19 5 -9 9 -20 3 -29 2 -23 -4z" fill="#673ab7"/>
<path d="M6435 270 l-30 -8 27 -1 c15 0 30 4 33 9 3 6 5 9 3 9 -2 -1 -16 -5 -33 -9z" fill="#673ab7"/>
<path d="M7955 270 l-30 -8 27 -1 c15 0 30 4 33 9 3 6 5 9 3 9 -2 -1 -16 -5 -33 -9z" fill="#673ab7"/>
<path d="M8235 270 l-30 -8 27 -1 c15 0 30 4 33 9 3 6 5 9 3 9 -2 -1 -16 -5 -33 -9z" fill="#673ab7"/>
<path d="M14875 270 l-30 -8 27 -1 c15 0 30 4 33 9 3 6 5 9 3 9 -2 -1 -16 -5 -33 -9z" fill="#673ab7"/>
<path d="M198 263 c6 -2 18 -2 25 0 6 3 1 5 -13 5 -14 0 -19 -2 -12 -5z" fill="#673ab7"/>
<path d="M278 263 c12 -2 30 -2 40 0 9 3 -1 5 -23 4 -22 0 -30 -2 -17 -4z" fill="#673ab7"/>
<path d="M358 263 c6 -2 18 -2 25 0 6 3 1 5 -13 5 -14 0 -19 -2 -12 -5z" fill="#673ab7"/>
<path d="M673 263 c9 -2 23 -2 30 0 6 3 -1 5 -18 5 -16 0 -22 -2 -12 -5z" fill="#673ab7"/>
<path d="M748 263 c12 -2 32 -2 45 0 12 2 2 4 -23 4 -25 0 -35 -2 -22 -4z" fill="#673ab7"/>
<path d="M1033 263 c15 -2 37 -2 50 0 12 2 0 4 -28 4 -27 0 -38 -2 -22 -4z" fill="#673ab7"/>
<path d="M1128 263 c12 -2 30 -2 40 0 9 3 -1 5 -23 4 -22 0 -30 -2 -17 -4z" fill="#673ab7"/>
<path d="M1218 263 c12 -2 32 -2 45 0 12 2 2 4 -23 4 -25 0 -35 -2 -22 -4z" fill="#673ab7"/>
<path d="M1308 263 c12 -2 32 -2 45 0 12 2 2 4 -23 4 -25 0 -35 -2 -22 -4z" fill="#673ab7"/>
<path d="M1408 263 c12 -2 32 -2 45 0 12 2 2 4 -23 4 -25 0 -35 -2 -22 -4z" fill="#673ab7"/>
<path d="M1498 263 c6 -2 18 -2 25 0 6 3 1 5 -13 5 -14 0 -19 -2 -12 -5z" fill="#673ab7"/>
<path d="M1718 263 c6 -2 18 -2 25 0 6 3 1 5 -13 5 -14 0 -19 -2 -12 -5z" fill="#673ab7"/>
<path d="M1788 263 c12 -2 32 -2 45 0 12 2 2 4 -23 4 -25 0 -35 -2 -22 -4z" fill="#673ab7"/>
<path d="M1888 263 c12 -2 32 -2 45 0 12 2 2 4 -23 4 -25 0 -35 -2 -22 -4z" fill="#673ab7"/>
<path d="M1978 263 c12 -2 32 -2 45 0 12 2 2 4 -23 4 -25 0 -35 -2 -22 -4z" fill="#673ab7"/>
<path d="M2078 263 c12 -2 30 -2 40 0 9 3 -1 5 -23 4 -22 0 -30 -2 -17 -4z" fill="#673ab7"/>
<path d="M2168 263 c12 -2 32 -2 45 0 12 2 2 4 -23 4 -25 0 -35 -2 -22 -4z" fill="#673ab7"/>
<path d="M2473 263 c9 -2 23 -2 30 0 6 3 -1 5 -18 5 -16 0 -22 -2 -12 -5z" fill="#673ab7"/>
<path d="M2548 263 c12 -2 32 -2 45 0 12 2 2 4 -23 4 -25 0 -35 -2 -22 -4z" fill="#673ab7"/>
<path d="M2648 263 c12 -2 30 -2 40 0 9 3 -1 5 -23 4 -22 0 -30 -2 -17 -4z" fill="#673ab7"/>
<path d="M2738 263 c12 -2 32 -2 45 0 12 2 2 4 -23 4 -25 0 -35 -2 -22 -4z" fill="#673ab7"/>
<path d="M2833 263 c15 -2 37 -2 50 0 12 2 0 4 -28 4 -27 0 -38 -2 -22 -4z" fill="#673ab7"/>
<path d="M2928 263 c12 -2 30 -2 40 0 9 3 -1 5 -23 4 -22 0 -30 -2 -17 -4z" fill="#673ab7"/>
<path d="M3018 263 c12 -2 32 -2 45 0 12 2 2 4 -23 4 -25 0 -35 -2 -22 -4z" fill="#673ab7"/>
<path d="M3113 263 c9 -2 23 -2 30 0 6 3 -1 5 -18 5 -16 0 -22 -2 -12 -5z" fill="#673ab7"/>
<path d="M3233 263 c9 -2 23 -2 30 0 6 3 -1 5 -18 5 -16 0 -22 -2 -12 -5z" fill="#673ab7"/>
<path d="M3308 263 c12 -2 32 -2 45 0 12 2 2 4 -23 4 -25 0 -35 -2 -22 -4z" fill="#673ab7"/>
<path d="M3393 263 c9 -2 23 -2 30 0 6 3 -1 5 -18 5 -16 0 -22 -2 -12 -5z" fill="#673ab7"/>
<path d="M3778 263 c12 -2 32 -2 45 0 12 2 2 4 -23 4 -25 0 -35 -2 -22 -4z" fill="#673ab7"/>
<path d="M3868 263 c6 -2 18 -2 25 0 6 3 1 5 -13 5 -14 0 -19 -2 -12 -5z" fill="#673ab7"/>
<path d="M3993 263 c9 -2 23 -2 30 0 6 3 -1 5 -18 5 -16 0 -22 -2 -12 -5z" fill="#673ab7"/>
<path d="M4058 263 c12 -2 32 -2 45 0 12 2 2 4 -23 4 -25 0 -35 -2 -22 -4z" fill="#673ab7"/>
<path d="M4153 263 c9 -2 23 -2 30 0 6 3 -1 5 -18 5 -16 0 -22 -2 -12 -5z" fill="#673ab7"/>
<path d="M4463 263 c9 -2 23 -2 30 0 6 3 -1 5 -18 5 -16 0 -22 -2 -12 -5z" fill="#673ab7"/>
<path d="M4538 263 c12 -2 32 -2 45 0 12 2 2 4 -23 4 -25 0 -35 -2 -22 -4z" fill="#673ab7"/>
<path d="M4818 263 c12 -2 32 -2 45 0 12 2 2 4 -23 4 -25 0 -35 -2 -22 -4z" fill="#673ab7"/>
<path d="M4913 263 c9 -2 23 -2 30 0 6 3 -1 5 -18 5 -16 0 -22 -2 -12 -5z" fill="#673ab7"/>
<path d="M5223 263 c9 -2 25 -2 35 0 9 3 1 5 -18 5 -19 0 -27 -2 -17 -5z" fill="#673ab7"/>
<path d="M5298 263 c12 -2 32 -2 45 0 12 2 2 4 -23 4 -25 0 -35 -2 -22 -4z" fill="#673ab7"/>
<path d="M5383 263 c9 -2 23 -2 30 0 6 3 -1 5 -18 5 -16 0 -22 -2 -12 -5z" fill="#673ab7"/>
<path d="M5578 263 c12 -2 32 -2 45 0 12 2 2 4 -23 4 -25 0 -35 -2 -22 -4z" fill="#673ab7"/>
<path d="M5673 263 c9 -2 23 -2 30 0 6 3 -1 5 -18 5 -16 0 -22 -2 -12 -5z" fill="#673ab7"/>
<path d="M6058 263 c12 -2 32 -2 45 0 12 2 2 4 -23 4 -25 0 -35 -2 -22 -4z" fill="#673ab7"/>
<path d="M6143 263 c9 -2 23 -2 30 0 6 3 -1 5 -18 5 -16 0 -22 -2 -12 -5z" fill="#673ab7"/>
<path d="M6268 263 c6 -2 18 -2 25 0 6 3 1 5 -13 5 -14 0 -19 -2 -12 -5z" fill="#673ab7"/>
<path d="M6338 263 c12 -2 32 -2 45 0 12 2 2 4 -23 4 -25 0 -35 -2 -22 -4z" fill="#673ab7"/>
<path d="M7023 263 c9 -2 25 -2 35 0 9 3 1 5 -18 5 -19 0 -27 -2 -17 -5z" fill="#673ab7"/>
<path d="M7098 263 c12 -2 30 -2 40 0 9 3 -1 5 -23 4 -22 0 -30 -2 -17 -4z" fill="#673ab7"/>
<path d="M7183 263 c9 -2 23 -2 30 0 6 3 -1 5 -18 5 -16 0 -22 -2 -12 -5z" fill="#673ab7"/>
<path d="M7313 263 c9 -2 23 -2 30 0 6 3 -1 5 -18 5 -16 0 -22 -2 -12 -5z" fill="#673ab7"/>
<path d="M7378 263 c12 -2 32 -2 45 0 12 2 2 4 -23 4 -25 0 -35 -2 -22 -4z" fill="#673ab7"/>
<path d="M7473 263 c9 -2 23 -2 30 0 6 3 -1 5 -18 5 -16 0 -22 -2 -12 -5z" fill="#673ab7"/>
<path d="M7783 263 c9 -2 23 -2 30 0 6 3 -1 5 -18 5 -16 0 -22 -2 -12 -5z" fill="#673ab7"/>
<path d="M7858 263 c12 -2 32 -2 45 0 12 2 2 4 -23 4 -25 0 -35 -2 -22 -4z" fill="#673ab7"/>
<path d="M8068 263 c6 -2 18 -2 25 0 6 3 1 5 -13 5 -14 0 -19 -2 -12 -5z" fill="#673ab7"/>
<path d="M8138 263 c12 -2 32 -2 45 0 12 2 2 4 -23 4 -25 0 -35 -2 -22 -4z" fill="#673ab7"/>
<path d="M8543 263 c9 -2 23 -2 30 0 6 3 -1 5 -18 5 -16 0 -22 -2 -12 -5z" fill="#673ab7"/>
<path d="M8618 263 c12 -2 30 -2 40 0 9 3 -1 5 -23 4 -22 0 -30 -2 -17 -4z" fill="#673ab7"/>
<path d="M8708 263 c12 -2 32 -2 45 0 12 2 2 4 -23 4 -25 0 -35 -2 -22 -4z" fill="#673ab7"/>
<path d="M8803 263 c15 -2 37 -2 50 0 12 2 0 4 -28 4 -27 0 -38 -2 -22 -4z" fill="#673ab7"/>
<path d="M8893 263 c9 -2 23 -2 30 0 6 3 -1 5 -18 5 -16 0 -22 -2 -12 -5z" fill="#673ab7"/>
<path d="M9013 263 c9 -2 23 -2 30 0 6 3 -1 5 -18 5 -16 0 -22 -2 -12 -5z" fill="#673ab7"/>
<path d="M9088 263 c12 -2 32 -2 45 0 12 2 2 4 -23 4 -25 0 -35 -2 -22 -4z" fill="#673ab7"/>
<path d="M9178 263 c12 -2 32 -2 45 0 12 2 2 4 -23 4 -25 0 -35 -2 -22 -4z" fill="#673ab7"/>
<path d="M9278 263 c12 -2 32 -2 45 0 12 2 2 4 -23 4 -25 0 -35 -2 -22 -4z" fill="#673ab7"/>
<path d="M9378 263 c12 -2 32 -2 45 0 12 2 2 4 -23 4 -25 0 -35 -2 -22 -4z" fill="#673ab7"/>
<path d="M9468 263 c12 -2 32 -2 45 0 12 2 2 4 -23 4 -25 0 -35 -2 -22 -4z" fill="#673ab7"/>
<path d="M9558 263 c12 -2 32 -2 45 0 12 2 2 4 -23 4 -25 0 -35 -2 -22 -4z" fill="#673ab7"/>
<path d="M9648 263 c6 -2 18 -2 25 0 6 3 1 5 -13 5 -14 0 -19 -2 -12 -5z" fill="#673ab7"/>
<path d="M10153 263 c9 -2 23 -2 30 0 6 3 -1 5 -18 5 -16 0 -22 -2 -12 -5z" fill="#673ab7"/>
<path d="M10228 263 c12 -2 32 -2 45 0 12 2 2 4 -23 4 -25 0 -35 -2 -22 -4z" fill="#673ab7"/>
<path d="M10323 263 c15 -2 37 -2 50 0 12 2 0 4 -28 4 -27 0 -38 -2 -22 -4z" fill="#673ab7"/>
<path d="M10418 263 c12 -2 30 -2 40 0 9 3 -1 5 -23 4 -22 0 -30 -2 -17 -4z" fill="#673ab7"/>
<path d="M10508 263 c12 -2 32 -2 45 0 12 2 2 4 -23 4 -25 0 -35 -2 -22 -4z" fill="#673ab7"/>
<path d="M10603 263 c15 -2 37 -2 50 0 12 2 0 4 -28 4 -27 0 -38 -2 -22 -4z" fill="#673ab7"/>
<path d="M10698 263 c12 -2 32 -2 45 0 12 2 2 4 -23 4 -25 0 -35 -2 -22 -4z" fill="#673ab7"/>
<path d="M10788 263 c6 -2 18 -2 25 0 6 3 1 5 -13 5 -14 0 -19 -2 -12 -5z" fill="#673ab7"/>
<path d="M10913 263 c9 -2 23 -2 30 0 6 3 -1 5 -18 5 -16 0 -22 -2 -12 -5z" fill="#673ab7"/>
<path d="M10988 263 c12 -2 30 -2 40 0 9 3 -1 5 -23 4 -22 0 -30 -2 -17 -4z" fill="#673ab7"/>
<path d="M11078 263 c12 -2 32 -2 45 0 12 2 2 4 -23 4 -25 0 -35 -2 -22 -4z" fill="#673ab7"/>
<path d="M11173 263 c15 -2 37 -2 50 0 12 2 0 4 -28 4 -27 0 -38 -2 -22 -4z" fill="#673ab7"/>
<path d="M11268 263 c12 -2 32 -2 45 0 12 2 2 4 -23 4 -25 0 -35 -2 -22 -4z" fill="#673ab7"/>
<path d="M11368 263 c12 -2 30 -2 40 0 9 3 -1 5 -23 4 -22 0 -30 -2 -17 -4z" fill="#673ab7"/>
<path d="M11458 263 c12 -2 32 -2 45 0 12 2 2 4 -23 4 -25 0 -35 -2 -22 -4z" fill="#673ab7"/>
<path d="M11738 263 c12 -2 32 -2 45 0 12 2 2 4 -23 4 -25 0 -35 -2 -22 -4z" fill="#673ab7"/>
<path d="M11833 263 c9 -2 23 -2 30 0 6 3 -1 5 -18 5 -16 0 -22 -2 -12 -5z" fill="#673ab7"/>
<path d="M12143 263 c9 -2 25 -2 35 0 9 3 1 5 -18 5 -19 0 -27 -2 -17 -5z" fill="#673ab7"/>
<path d="M12218 263 c12 -2 30 -2 40 0 9 3 -1 5 -23 4 -22 0 -30 -2 -17 -4z" fill="#673ab7"/>
<path d="M12303 263 c9 -2 23 -2 30 0 6 3 -1 5 -18 5 -16 0 -22 -2 -12 -5z" fill="#673ab7"/>
<path d="M12433 263 c9 -2 23 -2 30 0 6 3 -1 5 -18 5 -16 0 -22 -2 -12 -5z" fill="#673ab7"/>
<path d="M12498 263 c12 -2 32 -2 45 0 12 2 2 4 -23 4 -25 0 -35 -2 -22 -4z" fill="#673ab7"/>
<path d="M12588 263 c6 -2 18 -2 25 0 6 3 1 5 -13 5 -14 0 -19 -2 -12 -5z" fill="#673ab7"/>
<path d="M12973 263 c15 -2 37 -2 50 0 12 2 0 4 -28 4 -27 0 -38 -2 -22 -4z" fill="#673ab7"/>
<path d="M13063 263 c9 -2 23 -2 30 0 6 3 -1 5 -18 5 -16 0 -22 -2 -12 -5z" fill="#673ab7"/>
<path d="M13183 263 c9 -2 23 -2 30 0 6 3 -1 5 -18 5 -16 0 -22 -2 -12 -5z" fill="#673ab7"/>
<path d="M13258 263 c12 -2 32 -2 45 0 12 2 2 4 -23 4 -25 0 -35 -2 -22 -4z" fill="#673ab7"/>
<path d="M13943 263 c9 -2 23 -2 30 0 6 3 -1 5 -18 5 -16 0 -22 -2 -12 -5z" fill="#673ab7"/>
<path d="M14018 263 c12 -2 32 -2 45 0 12 2 2 4 -23 4 -25 0 -35 -2 -22 -4z" fill="#673ab7"/>
<path d="M14103 263 c9 -2 23 -2 30 0 6 3 -1 5 -18 5 -16 0 -22 -2 -12 -5z" fill="#673ab7"/>
<path d="M14233 263 c9 -2 23 -2 30 0 6 3 -1 5 -18 5 -16 0 -22 -2 -12 -5z" fill="#673ab7"/>
<path d="M14298 263 c12 -2 32 -2 45 0 12 2 2 4 -23 4 -25 0 -35 -2 -22 -4z" fill="#673ab7"/>
<path d="M14398 263 c12 -2 32 -2 45 0 12 2 2 4 -23 4 -25 0 -35 -2 -22 -4z" fill="#673ab7"/>
<path d="M14493 263 c15 -2 37 -2 50 0 12 2 0 4 -28 4 -27 0 -38 -2 -22 -4z" fill="#673ab7"/>
<path d="M14588 263 c12 -2 30 -2 40 0 9 3 -1 5 -23 4 -22 0 -30 -2 -17 -4z" fill="#673ab7"/>
<path d="M14678 263 c12 -2 32 -2 45 0 12 2 2 4 -23 4 -25 0 -35 -2 -22 -4z" fill="#673ab7"/>
<path d="M14773 263 c15 -2 37 -2 50 0 12 2 0 4 -28 4 -27 0 -38 -2 -22 -4z" fill="#673ab7"/>
<path d="M14988 263 c6 -2 18 -2 25 0 6 3 1 5 -13 5 -14 0 -19 -2 -12 -5z" fill="#673ab7"/>
<path d="M15058 263 c12 -2 32 -2 45 0 12 2 2 4 -23 4 -25 0 -35 -2 -22 -4z" fill="#673ab7"/>
<path d="M15158 263 c12 -2 32 -2 45 0 12 2 2 4 -23 4 -25 0 -35 -2 -22 -4z" fill="#673ab7"/>
<path d="M15248 263 c12 -2 32 -2 45 0 12 2 2 4 -23 4 -25 0 -35 -2 -22 -4z" fill="#673ab7"/>
<path d="M15348 263 c12 -2 32 -2 45 0 12 2 2 4 -23 4 -25 0 -35 -2 -22 -4z" fill="#673ab7"/>
<path d="M15438 263 c12 -2 32 -2 45 0 12 2 2 4 -23 4 -25 0 -35 -2 -22 -4z" fill="#673ab7"/>
<path d="M15538 263 c12 -2 30 -2 40 0 9 3 -1 5 -23 4 -22 0 -30 -2 -17 -4z" fill="#673ab7"/>
<path d="M15623 263 c9 -2 23 -2 30 0 6 3 -1 5 -18 5 -16 0 -22 -2 -12 -5z" fill="#673ab7"/>
</g>
</svg>